<mxfile host="app.diagrams.net" modified="2023-10-19T08:17:47.384Z" agent="Mozilla/5.0 (iPhone; CPU iPhone OS 17_0_3 like Mac OS X) AppleWebKit/605.1.15 (KHTML, like Gecko) Version/17.0.1 Mobile/15E148 Safari/604.1" version="22.0.5" etag="2ipSK7enFZYpTYgLbbM6" type="github">
  <diagram name="Страница — 1" id="WrHKXaSTbCr5tKl_IiPw">
    <mxGraphModel>
      <root>
        <mxCell id="0" />
        <mxCell id="1" parent="0" />
      </root>
    </mxGraphModel>
  </diagram>
</mxfile>
